<svg xmlns="http://www.w3.org/2000/svg" viewBox="0 0 189.67 38.9"><defs><style>.cls-1{fill:#fff;}.cls-2{fill:#ff102d;}</style></defs><title>Recurso 1laptop</title><g id="Capa_2" data-name="Capa 2"><g id="Layer_1" data-name="Layer 1"><path class="cls-1" d="M69.29,13.47a3.21,3.21,0,0,0-3.2-2.09,3.9,3.9,0,0,0-3.87,4.15,3.93,3.93,0,0,0,3.87,4.21,3.34,3.34,0,0,0,3.26-2.37h4.21c-.63,4.08-4.08,6.14-7.6,6.17-4,0-8.14-2.63-8.14-8s4.15-8,8.17-8a7.27,7.27,0,0,1,7.51,6Z"/><path class="cls-1" d="M80.3,23.54c-2.85,0-5.45-1.83-5.54-4.78-.16-3.74,2.53-5.51,5.92-5.51a7.78,7.78,0,0,1,4.06,1V13.18c0-1.87-2.28-2.18-3.81-2.18a8.8,8.8,0,0,0-4.4.92L76,8.75a13.86,13.86,0,0,1,5.73-1.14c3.93,0,7.29,1.3,7.29,5.7v5.51c0,1.3,0,2.06,1.43,2l0,2.47c-2.31.51-4.85.38-4.85-2.35C84.67,22.82,82.26,23.54,80.3,23.54ZM84.64,17a5.71,5.71,0,0,0-3.17-.89c-1.39.09-2.53.89-2.37,2.37a1.9,1.9,0,0,0,2.09,1.65c1.46,0,3.29-.73,3.45-2.34Z"/><path class="cls-1" d="M96,18.47c0,1.27,1.23,1.84,2.5,1.81s2.6-.38,2.63-1.74S100.06,17.18,99,17c-3.07-.42-7.06-.83-7.06-4.53,0-3.43,2.82-5,6.56-5s6.78,1.65,6.62,4.88h-4.18c0-1.11-1.11-1.56-2.38-1.56s-2.35.58-2.35,1.59,1.21,1.3,2.19,1.39c3.42.42,7.32.7,7.23,4.79-.1,3.64-3.43,5-6.88,5s-7-1-7.13-5.07Z"/><path class="cls-1" d="M112.44,23.54c-2.85,0-5.45-1.83-5.55-4.78-.16-3.74,2.54-5.51,5.93-5.51a7.74,7.74,0,0,1,4.05,1V13.18c0-1.87-2.28-2.18-3.8-2.18a8.8,8.8,0,0,0-4.4.92l-.57-3.17a13.79,13.79,0,0,1,5.73-1.14c3.93,0,7.29,1.3,7.29,5.7v5.51c0,1.3,0,2.06,1.43,2l0,2.47c-2.32.51-4.85.38-4.85-2.35C116.81,22.82,114.4,23.54,112.44,23.54ZM116.78,17a5.71,5.71,0,0,0-3.17-.89c-1.39.09-2.53.89-2.38,2.37a1.92,1.92,0,0,0,2.09,1.65c1.46,0,3.3-.73,3.46-2.34Z"/><path class="cls-1" d="M143.32,20.6a4.94,4.94,0,0,1-4.59,2.94c-4.63.1-7.07-3.74-7.07-8,0-6,5.48-9.7,10.8-7.07V0h4.44V18.09c0,1.49-.19,2.32,1.43,2.22l0,2.88c-2.22.51-5,.48-5-2.18Zm-.73-8.4c-3.17-1.84-6.53-.51-6.53,3.33,0,2.18,1,4.08,3.36,4.08a3.25,3.25,0,0,0,3.17-3.48Z"/><path class="cls-1" d="M163.67,16.44H153.31c.15,2.38,1.93,3.3,4.05,3.46a11.51,11.51,0,0,0,2,0A13.41,13.41,0,0,0,163,19l.51,3.23a14.21,14.21,0,0,1-5.92,1.36c-5.14.1-8.75-3-8.75-8.2.1-5.33,4-7.83,8-7.83C162.46,7.51,164.84,11.25,163.67,16.44Zm-10.33-2.85h6.72c.09-2-1.53-2.69-3.17-2.69A3.4,3.4,0,0,0,153.34,13.59Z"/><path class="cls-1" d="M170.91,23.54c-2.85,0-5.45-1.83-5.54-4.78-.16-3.74,2.53-5.51,5.92-5.51a7.78,7.78,0,0,1,4.06,1V13.18c0-1.87-2.28-2.18-3.8-2.18a8.81,8.81,0,0,0-4.41.92l-.57-3.17a13.87,13.87,0,0,1,5.74-1.14c3.92,0,7.28,1.3,7.28,5.7v5.51c0,1.3,0,2.06,1.43,2l0,2.47c-2.31.51-4.85.38-4.85-2.35C175.28,22.82,172.88,23.54,170.91,23.54ZM175.25,17a5.68,5.68,0,0,0-3.17-.89c-1.39.09-2.53.89-2.37,2.37a1.9,1.9,0,0,0,2.09,1.65c1.46,0,3.29-.73,3.45-2.34Z"/><path class="cls-1" d="M186.47.1V17.49c0,2.35.92,2.82,3.05,2.47l.15,3.33c-4.72.86-7.57-.32-7.57-5.8V.1Z"/><path class="cls-1" d="M126.1,6.43a2.45,2.45,0,0,0,2.5-2.56,2.6,2.6,0,0,0-5.19,0A2.49,2.49,0,0,0,126.1,6.43Z"/><path class="cls-1" d="M131.23,20c-2.12.35-3-.12-3-2.47v-9h-4.37v9c0,5.48,2.85,6.66,7.57,5.8Z"/><path class="cls-1" d="M58.84,29.69a1,1,0,0,1,.29-.73.92.92,0,0,1,.7-.3,1,1,0,0,1,1,1,.92.92,0,0,1-.3.7,1,1,0,0,1-.73.29,1,1,0,0,1-1-1Zm.37,2.48h1.26v6.58H59.21Z"/><path class="cls-1" d="M64.18,32.17h1.26v1.16a2.22,2.22,0,0,1,.88-1A2.69,2.69,0,0,1,67.75,32a2.87,2.87,0,0,1,1.19.23,1.76,1.76,0,0,1,.78.64,2.49,2.49,0,0,1,.39.84,4.69,4.69,0,0,1,.12,1.16v3.88H69V35.26a3.89,3.89,0,0,0-.09-.85,2,2,0,0,0-.28-.68,1.34,1.34,0,0,0-.52-.45,1.67,1.67,0,0,0-.78-.16,1.74,1.74,0,0,0-.82.18,1.88,1.88,0,0,0-.58.5,2.19,2.19,0,0,0-.35.72,2.94,2.94,0,0,0-.11.84v3.39H64.18Z"/><path class="cls-1" d="M82.31,38.75V35A2.3,2.3,0,0,0,82,33.59a1.22,1.22,0,0,0-1-.47,1.39,1.39,0,0,0-1.17.56,2.81,2.81,0,0,0-.44,1.72v3.35H78.06V35a2.37,2.37,0,0,0-.36-1.46,1.21,1.21,0,0,0-1-.46,1.41,1.41,0,0,0-1.17.56,2.74,2.74,0,0,0-.45,1.72v3.35H73.8V32.17h1.26v1.18a2,2,0,0,1,.69-1A2,2,0,0,1,77,32a2.35,2.35,0,0,1,1.42.38,1.91,1.91,0,0,1,.69,1,1.93,1.93,0,0,1,.31-.53,2.21,2.21,0,0,1,1.07-.75,2.21,2.21,0,0,1,.74-.12,2.77,2.77,0,0,1,1.1.2,2,2,0,0,1,.72.55,2.46,2.46,0,0,1,.4.83,4.11,4.11,0,0,1,.12,1v4.16Z"/><path class="cls-1" d="M90.08,38.9a3.63,3.63,0,0,1-1.42-.27,3.18,3.18,0,0,1-1.08-.75,3.62,3.62,0,0,1-.7-1.1,3.75,3.75,0,0,1,0-2.64,3.55,3.55,0,0,1,.7-1.11,3.18,3.18,0,0,1,1.08-.75A3.46,3.46,0,0,1,90.08,32a3.52,3.52,0,0,1,1.44.28,3.32,3.32,0,0,1,1.09.75,3.37,3.37,0,0,1,.7,1.11,3.61,3.61,0,0,1,0,2.64,3.44,3.44,0,0,1-.7,1.1,3.32,3.32,0,0,1-1.09.75A3.7,3.7,0,0,1,90.08,38.9Zm0-1.12a2.26,2.26,0,0,0,.92-.19,2.12,2.12,0,0,0,.7-.5,2,2,0,0,0,.45-.73,2.61,2.61,0,0,0,0-1.8,2.17,2.17,0,0,0-.45-.74,2,2,0,0,0-.7-.5,2.1,2.1,0,0,0-.92-.19,2.13,2.13,0,0,0-1.6.69,2.5,2.5,0,0,0-.44.74,2.61,2.61,0,0,0,0,1.8,2.33,2.33,0,0,0,.44.73,2.13,2.13,0,0,0,1.6.69Z"/><path class="cls-1" d="M98,38.75H96.73V28.61H98V33.3a2.39,2.39,0,0,1,.94-.95,2.77,2.77,0,0,1,1.35-.35,3.31,3.31,0,0,1,1.38.28,3,3,0,0,1,1.07.75,3.35,3.35,0,0,1,.69,1.11,3.61,3.61,0,0,1,0,2.64,3.41,3.41,0,0,1-.69,1.1,3,3,0,0,1-1.07.75,3.47,3.47,0,0,1-1.38.27,2.76,2.76,0,0,1-1.35-.34,2.35,2.35,0,0,1-.94-1Zm2.23-1a2.13,2.13,0,0,0,1.59-.69,2.33,2.33,0,0,0,.44-.73,2.61,2.61,0,0,0,0-1.8,2.5,2.5,0,0,0-.44-.74,2.13,2.13,0,0,0-1.59-.69,2.17,2.17,0,0,0-.92.19,2.08,2.08,0,0,0-.7.5,2.53,2.53,0,0,0-.45.74,2.61,2.61,0,0,0,0,1.8,2.36,2.36,0,0,0,.45.73,2.23,2.23,0,0,0,.7.5A2.33,2.33,0,0,0,100.21,37.78Z"/><path class="cls-1" d="M106.47,29.69a1,1,0,0,1,.28-.73,1,1,0,0,1,.71-.3,1,1,0,0,1,.73.3,1,1,0,0,1,.3.73.92.92,0,0,1-.3.7,1,1,0,0,1-.73.29,1,1,0,0,1-1-1Zm.37,2.48h1.26v6.58h-1.26Z"/><path class="cls-1" d="M111.81,28.61h1.25V38.75h-1.25Z"/><path class="cls-1" d="M116.39,29.69a1,1,0,0,1,.29-.73,1,1,0,0,1,.71-.3,1,1,0,0,1,.73.3,1,1,0,0,1,.3.73.92.92,0,0,1-.3.7,1,1,0,0,1-.73.29,1,1,0,0,1-1-1Zm.38,2.48H118v6.58h-1.26Z"/><path class="cls-1" d="M128.12,32.17v6.58h-1.25V37.6a2.26,2.26,0,0,1-1,1,2.76,2.76,0,0,1-1.35.34,3.38,3.38,0,0,1-1.37-.27,3.14,3.14,0,0,1-1.07-.75,3.79,3.79,0,0,1-.69-1.1,3.61,3.61,0,0,1,.69-3.75,3.14,3.14,0,0,1,1.07-.75,3.23,3.23,0,0,1,1.37-.28,2.77,2.77,0,0,1,1.35.35,2.29,2.29,0,0,1,1,.95V32.17Zm-3.48,5.61a2.26,2.26,0,0,0,.92-.19,2.12,2.12,0,0,0,.7-.5,2,2,0,0,0,.45-.73,2.61,2.61,0,0,0,0-1.8,2.17,2.17,0,0,0-.45-.74,2,2,0,0,0-.7-.5,2.1,2.1,0,0,0-.92-.19,2.13,2.13,0,0,0-1.6.69,2.74,2.74,0,0,0-.44.74,2.61,2.61,0,0,0,0,1.8,2.54,2.54,0,0,0,.44.73,2.13,2.13,0,0,0,1.6.69Z"/><path class="cls-1" d="M135.89,33.33l-.33-.06h-.29a2,2,0,0,0-1.65.71,3,3,0,0,0-.54,1.9v2.88h-1.26V32.17h1.26v1.29a2.12,2.12,0,0,1,.88-1,2.39,2.39,0,0,1,1.31-.39,1.83,1.83,0,0,1,.62.1Z"/><path class="cls-1" d="M138.17,29.69a1,1,0,0,1,.29-.73,1,1,0,0,1,.71-.3,1,1,0,0,1,.73.3,1,1,0,0,1,.3.73.92.92,0,0,1-.3.7,1,1,0,0,1-.73.29,1,1,0,0,1-1-1Zm.38,2.48h1.26v6.58h-1.26Z"/><path class="cls-1" d="M149.9,32.17v6.58h-1.25V37.6a2.26,2.26,0,0,1-1,1,2.74,2.74,0,0,1-1.35.34,3.38,3.38,0,0,1-1.37-.27,3.14,3.14,0,0,1-1.07-.75,3.56,3.56,0,0,1-.68-1.1,3.65,3.65,0,0,1,.68-3.75,3.14,3.14,0,0,1,1.07-.75,3.23,3.23,0,0,1,1.37-.28,2.74,2.74,0,0,1,1.35.35,2.29,2.29,0,0,1,1,.95V32.17Zm-3.48,5.61a2.26,2.26,0,0,0,.92-.19,2.12,2.12,0,0,0,.7-.5,2,2,0,0,0,.45-.73,2.61,2.61,0,0,0,0-1.8,2.17,2.17,0,0,0-.45-.74,2,2,0,0,0-.7-.5,2.3,2.3,0,0,0-1.83,0,2,2,0,0,0-.69.5,2.74,2.74,0,0,0-.44.74,2.61,2.61,0,0,0,0,1.8,2.54,2.54,0,0,0,.44.73,2.19,2.19,0,0,0,.69.5A2.24,2.24,0,0,0,146.42,37.78Z"/><path class="cls-2" d="M40.47,8.33,25.18.69a6.63,6.63,0,0,0-5.89,0L4,8.33a6.63,6.63,0,0,0-4,6.09V32.93a5.81,5.81,0,0,0,8.7,5l5.57-2.78a1.37,1.37,0,0,0,.62-1.85h0a1.37,1.37,0,0,0-1.84-.6L7.44,35.54l-.08.05a3,3,0,0,1-3.56-.36,3.33,3.33,0,0,1-1.06-2.48V14.42a3.89,3.89,0,0,1,2.38-3.59L20.51,3.14a4,4,0,0,1,1.73-.4,3.91,3.91,0,0,1,1.72.4l15.32,7.65.08,0a3.9,3.9,0,0,1,2.37,3.59V32.76a3.29,3.29,0,0,1-1.06,2.47,3,3,0,0,1-3.55.36l-.06,0,0,0L25.78,29.93l-.15-.07h0l-2-1c-.82-.41-3-1.47-4.95-2.4h0L16,25.12l-.61-.3a.52.52,0,0,1-.27-.44V19a.78.78,0,0,1,.49-.73l6.31-3.16a.85.85,0,0,1,.7,0l6.27,3.13,0,0a.81.81,0,0,1,.49.75v6.3a1.38,1.38,0,0,0,1.09,1.38,1.35,1.35,0,0,0,1.62-1.33V19A3.51,3.51,0,0,0,30,15.76l-6.22-3.1a3.51,3.51,0,0,0-3.11,0l-6.21,3.1A3.5,3.5,0,0,0,12.37,19v5.52a3.18,3.18,0,0,0,2,2.94,11.44,11.44,0,0,0,1.05.52l2.81,1.34c1.38.66,2.8,1.34,4.19,2L35.78,38a5.8,5.8,0,0,0,8.69-5V14.42A6.63,6.63,0,0,0,40.47,8.33Z"/></g></g></svg>