<svg xmlns="http://www.w3.org/2000/svg" width="324.362" height="82.32" viewBox="0 0 324.362 82.32">
  <g id="logo-lnm" transform="translate(0 -0.001)">
    <path id="Trazado_18" data-name="Trazado 18" d="M46.285,58.433l-12.735.023q-5.423-.011-7.256-1.913t-1.823-7.625L24.55,8.772A8.723,8.723,0,0,0,15.845.032L.1,0,0,52.787Q-.03,66.646,7.429,74.464t20.834,7.844l25.228.013V65.64a7.206,7.206,0,0,0-7.206-7.206" transform="translate(0)" fill="#fff"/>
    <path id="Trazado_19" data-name="Trazado 19" d="M132.008,7.857Q124.551.039,111.173.013L104.691,0H80.8V15.188a8.7,8.7,0,0,0,8.7,8.7l16.383-.023q5.423.011,7.256,1.913t1.823,7.625l-.079,40.188a8.68,8.68,0,0,0,8.664,8.7l15.784.031.1-52.786q.031-13.859-7.429-21.678" transform="translate(-50.354)" fill="#fff"/>
    <path id="Trazado_20" data-name="Trazado 20" d="M299.508,7.857Q292.051.039,278.673.013L272.19,0H248.3V15.246a8.643,8.643,0,0,0,8.643,8.643l16.44-.023q5.423.011,7.256,1.913t1.823,7.625l-.079,40.243A8.626,8.626,0,0,0,291,82.289l15.838.031.1-52.786q.03-13.859-7.429-21.678" transform="translate(-154.736)" fill="#fff"/>
    <path id="Trazado_21" data-name="Trazado 21" d="M469.185,63.68a.864.864,0,0,1,0,1.728h-8.315a.91.91,0,0,1-.918-.918V47.941a.918.918,0,0,1,1.836,0V63.68Z" transform="translate(-286.63 -29.303)" fill="#fff"/>
    <path id="Trazado_22" data-name="Trazado 22" d="M497.4,60.035l-1.971,4.941a.941.941,0,0,1-.891.648.928.928,0,0,1-.918-.918,1.079,1.079,0,0,1,.081-.405l6.587-16.657a.89.89,0,0,1,.864-.621.954.954,0,0,1,.891.621L508.631,64.3a1.336,1.336,0,0,1,.081.405.947.947,0,0,1-1.836.3l-1.944-4.968Zm3.752-9.934-3.186,8.261h6.4Z" transform="translate(-307.611 -29.303)" fill="#fff"/>
    <path id="Trazado_23" data-name="Trazado 23" d="M576.354,47.914V64.706a.927.927,0,0,1-1.674.54l-9.5-14.335V64.732a.891.891,0,1,1-1.782,0V47.914a.9.9,0,0,1,.891-.891.926.926,0,0,1,.729.378l9.557,14.362V47.914a.891.891,0,0,1,1.782,0" transform="translate(-351.093 -29.303)" fill="#fff"/>
    <path id="Trazado_24" data-name="Trazado 24" d="M611.377,60.035l-1.971,4.941a.94.94,0,0,1-.891.648.928.928,0,0,1-.918-.918,1.079,1.079,0,0,1,.081-.405l6.587-16.657a.891.891,0,0,1,.864-.621.954.954,0,0,1,.891.621L622.607,64.3a1.336,1.336,0,0,1,.081.405.947.947,0,0,1-1.835.3l-1.944-4.968Zm3.752-9.934-3.186,8.261h6.4Z" transform="translate(-378.638 -29.303)" fill="#fff"/>
    <path id="Trazado_25" data-name="Trazado 25" d="M660.01,65.063a.918.918,0,0,1-1.836,0V48.514a.91.91,0,0,1,.918-.918h5.372a5.04,5.04,0,0,1,5.156,5.157,4.966,4.966,0,0,1-4.832,5.156l4.94,6.587a.9.9,0,0,1,.189.567.921.921,0,0,1-1.7.486l-5.48-7.64H660.01Zm0-8.828h4.508a3.489,3.489,0,0,0-.081-6.965H660.01Z" transform="translate(-410.156 -29.66)" fill="#fff"/>
    <path id="Trazado_26" data-name="Trazado 26" d="M700.136,60.035l-1.971,4.941a.94.94,0,0,1-.891.648.928.928,0,0,1-.918-.918,1.079,1.079,0,0,1,.081-.405l6.587-16.657a.891.891,0,0,1,.864-.621.954.954,0,0,1,.891.621L711.366,64.3a1.338,1.338,0,0,1,.081.405.947.947,0,0,1-1.836.3l-1.944-4.968Zm3.752-9.934L700.7,58.361h6.4Z" transform="translate(-433.95 -29.303)" fill="#fff"/>
    <path id="Trazado_27" data-name="Trazado 27" d="M759.174,47.914V64.706a.927.927,0,0,1-1.674.54L748,50.91V64.732a.891.891,0,0,1-1.782,0V47.914a.9.9,0,0,1,.892-.891.926.926,0,0,1,.729.378l9.556,14.362V47.914a.891.891,0,0,1,1.782,0" transform="translate(-465.021 -29.303)" fill="#fff"/>
    <path id="Trazado_28" data-name="Trazado 28" d="M789.63,64.328a.9.9,0,0,1,.891-.891,1.117,1.117,0,0,1,.54.162,4.233,4.233,0,0,0,2,.432c2.375,0,3.293-1.728,3.293-4.1V47.941a.918.918,0,1,1,1.836,0V59.927c0,3.293-1.377,5.831-5.129,5.831a6.449,6.449,0,0,1-2.916-.621.916.916,0,0,1-.513-.809" transform="translate(-492.075 -29.303)" fill="#fff"/>
    <path id="Trazado_29" data-name="Trazado 29" d="M824.5,60.035l-1.971,4.941a.941.941,0,0,1-.891.648.927.927,0,0,1-.918-.918,1.079,1.079,0,0,1,.081-.405l6.587-16.657a.891.891,0,0,1,.864-.621.954.954,0,0,1,.891.621L835.731,64.3a1.348,1.348,0,0,1,.081.405.947.947,0,0,1-1.836.3l-1.944-4.968Zm3.753-9.934-3.185,8.261h6.4Z" transform="translate(-511.451 -29.303)" fill="#fff"/>
    <path id="Trazado_30" data-name="Trazado 30" d="M466.66,137l-5.642-10.5v13.282a.891.891,0,1,1-1.782,0V122.964a.9.9,0,0,1,.891-.891.889.889,0,0,1,.81.513l6.533,12.229,6.56-12.229a.893.893,0,0,1,1.7.378v16.819a.891.891,0,1,1-1.782,0V126.5L468.28,137a.9.9,0,0,1-1.62,0" transform="translate(-286.183 -76.072)" fill="#fff"/>
    <path id="Trazado_31" data-name="Trazado 31" d="M518.252,140.814a.91.91,0,0,1-.918-.918V123.564a.911.911,0,0,1,.918-.918h8.666a.837.837,0,0,1,0,1.674H519.17v6.506h5.939a.837.837,0,1,1,0,1.674H519.17v6.641h8.045a.837.837,0,0,1,0,1.673Z" transform="translate(-322.388 -76.429)" fill="#fff"/>
    <path id="Trazado_32" data-name="Trazado 32" d="M562.032,122.646c5.156,0,8.342,2.429,8.342,9.1s-3.185,9.071-8.342,9.071h-3.807a.91.91,0,0,1-.918-.918V123.564a.91.91,0,0,1,.918-.918Zm-2.889,16.495h2.889c4.022,0,6.479-1.782,6.479-7.4,0-5.561-2.457-7.424-6.479-7.424h-2.889Z" transform="translate(-347.299 -76.429)" fill="#fff"/>
    <path id="Trazado_33" data-name="Trazado 33" d="M605.564,139.755a.918.918,0,1,1-1.836,0V122.99a.918.918,0,1,1,1.836,0Z" transform="translate(-376.227 -76.071)" fill="#fff"/>
    <path id="Trazado_34" data-name="Trazado 34" d="M622.91,135.084l-1.971,4.941a.941.941,0,0,1-.891.648.928.928,0,0,1-.918-.918,1.079,1.079,0,0,1,.081-.405l6.587-16.657a.891.891,0,0,1,.864-.621.954.954,0,0,1,.891.621l6.587,16.657a1.336,1.336,0,0,1,.081.405.947.947,0,0,1-1.835.3l-1.944-4.968Zm3.753-9.934-3.186,8.261h6.4Z" transform="translate(-385.825 -76.071)" fill="#fff"/>
  </g>
</svg>
