<svg xmlns="http://www.w3.org/2000/svg" viewBox="0 0 192 42.01"><defs><style>.cls-1{fill:#fff;}</style></defs><title>Recurso 1laptop</title><g id="Capa_2" data-name="Capa 2"><g id="Capa_1-2" data-name="Capa 1"><path class="cls-1" d="M42,42H31.21V20.38a10.56,10.56,0,0,0-3.66-8,9.94,9.94,0,0,0-8-2.39A10.4,10.4,0,0,0,10.8,20.4V42H0V21a21,21,0,0,1,42,0Zm-8.73-2.07h6.65V21A18.93,18.93,0,0,0,2.07,21V39.94H8.73V20.4A12.48,12.48,0,0,1,19.22,8a12,12,0,0,1,9.68,2.87,12.63,12.63,0,0,1,4.38,9.53Z"/><path class="cls-1" d="M73.21,42H62.41V20.38a10.56,10.56,0,0,0-3.66-8,9.94,9.94,0,0,0-8-2.39A10.4,10.4,0,0,0,42,20.4V42H31.2V21a21,21,0,0,1,42,0Zm-8.73-2.07h6.65V21a18.93,18.93,0,1,0-37.86,0V39.94h6.66V20.4A12.48,12.48,0,0,1,50.42,8a12,12,0,0,1,9.68,2.87,12.63,12.63,0,0,1,4.38,9.53Z"/><polygon class="cls-1" points="104.35 21.52 104.35 8.59 98.5 21.52 97.23 21.52 91.4 8.59 91.4 21.52 90.05 21.52 90.05 6.59 91.95 6.59 97.89 19.77 103.82 6.59 105.7 6.59 105.7 21.52 104.35 21.52"/><path class="cls-1" d="M110.14,6.25a1.06,1.06,0,1,1,0,2.11,1.06,1.06,0,0,1,0-2.11m-.63,5.22h1.27v10h-1.27Z"/><path class="cls-1" d="M119.26,12.78a3.64,3.64,0,0,0-.88-.11c-1.71,0-3,1.1-3,3.39v5.46h-1.27v-10h1.25v1.87a3.19,3.19,0,0,1,3.09-2,2.5,2.5,0,0,1,.78.1Z"/><path class="cls-1" d="M120.42,18.93c0-1.71,1.18-2.7,3-3l2.67-.4c.87-.13,1.06-.51,1.06-1a2.23,2.23,0,0,0-2.53-2.27,2.58,2.58,0,0,0-2.82,2.33l-1.18-.25a3.71,3.71,0,0,1,4-3.18c2.61,0,3.81,1.58,3.81,3.5v5.07a8,8,0,0,0,.15,1.73h-1.24a10,10,0,0,1-.13-1.73,3.8,3.8,0,0,1-3.5,2,3,3,0,0,1-3.28-2.84m6.74-1.52V16.27a1.73,1.73,0,0,1-.74.26l-2.8.42c-1.18.17-1.92.82-1.92,1.91a1.94,1.94,0,0,0,2.15,1.84,3.13,3.13,0,0,0,3.31-3.29"/><path class="cls-1" d="M133,21.52h-1.26v-10h1.22v1.6a3.53,3.53,0,0,1,3.26-1.86A3.43,3.43,0,0,1,139.73,15v6.55h-1.26V15.18a2.52,2.52,0,0,0-2.72-2.82,2.9,2.9,0,0,0-2.8,3.16Z"/><path class="cls-1" d="M142.3,16.51a5,5,0,1,1,10,0,5,5,0,1,1-10,0m5,4.14c2,0,3.71-1.53,3.71-4.14s-1.73-4.15-3.71-4.15-3.71,1.52-3.71,4.15,1.73,4.14,3.71,4.14"/><rect class="cls-1" x="90.05" y="26.81" width="1.35" height="14.93"/><path class="cls-1" d="M96.48,41.73H95.21v-10h1.22v1.6a3.57,3.57,0,0,1,3.27-1.85,3.43,3.43,0,0,1,3.56,3.75v6.54H102V35.4a2.52,2.52,0,0,0-2.71-2.83,2.91,2.91,0,0,0-2.8,3.16Z"/><path class="cls-1" d="M106.52,41.73v-10h1.24v1.66a3.43,3.43,0,0,1,3.2-1.93,3.11,3.11,0,0,1,3.16,2.27,3.57,3.57,0,0,1,3.45-2.27,3.38,3.38,0,0,1,3.48,3.66v6.65h-1.26v-6.5a2.47,2.47,0,0,0-2.57-2.7,2.86,2.86,0,0,0-2.8,3v6.17h-1.27v-6.5a2.45,2.45,0,0,0-2.57-2.7,2.86,2.86,0,0,0-2.8,3v6.17Z"/><path class="cls-1" d="M123.62,36.72a5,5,0,1,1,10,0,5,5,0,1,1-10,0m5,4.15c2,0,3.71-1.54,3.71-4.15s-1.73-4.14-3.71-4.14-3.7,1.51-3.7,4.14,1.72,4.15,3.7,4.15"/><path class="cls-1" d="M136.28,41.73V26.53h1.26v7.1a3.87,3.87,0,0,1,3.64-2.21c2.8,0,4.55,2.29,4.55,5.28S143.94,42,141.14,42a3.92,3.92,0,0,1-3.62-2.23v1.95Zm8.19-5c0-2.42-1.41-4.15-3.48-4.15s-3.47,1.73-3.47,4.15,1.41,4.17,3.47,4.17,3.48-1.73,3.48-4.17"/><path class="cls-1" d="M149.06,26.47A1.06,1.06,0,1,1,148,27.52a1,1,0,0,1,1.05-1.05m-.63,5.22h1.26v10h-1.26Z"/><rect class="cls-1" x="153.06" y="26.53" width="1.26" height="15.2"/><path class="cls-1" d="M158.32,26.47a1.06,1.06,0,1,1-1,1.05,1,1,0,0,1,1-1.05m-.63,5.22H159v10h-1.27Z"/><path class="cls-1" d="M161.59,39.14c0-1.7,1.18-2.69,3-3l2.67-.4c.87-.13,1.06-.51,1.06-1a2.24,2.24,0,0,0-2.53-2.28A2.58,2.58,0,0,0,163,34.87l-1.18-.25a3.71,3.71,0,0,1,4-3.18c2.61,0,3.81,1.58,3.81,3.49V40a7.91,7.91,0,0,0,.15,1.72H168.5a9.86,9.86,0,0,1-.13-1.72,3.8,3.8,0,0,1-3.5,2,3,3,0,0,1-3.28-2.85m6.74-1.51V36.49a1.78,1.78,0,0,1-.74.25l-2.8.43c-1.18.16-1.92.82-1.92,1.91A1.94,1.94,0,0,0,165,40.91a3.12,3.12,0,0,0,3.31-3.28"/><path class="cls-1" d="M178,33a3.2,3.2,0,0,0-.88-.11c-1.71,0-3,1.1-3,3.39v5.45h-1.26v-10h1.24v1.87a3.21,3.21,0,0,1,3.09-2,2.45,2.45,0,0,1,.78.11Z"/><path class="cls-1" d="M180.58,26.47a1.06,1.06,0,1,1-1.05,1.05,1,1,0,0,1,1.05-1.05M180,31.69h1.26v10H180Z"/><path class="cls-1" d="M183.85,39.14c0-1.7,1.18-2.69,3-3l2.67-.4c.87-.13,1.06-.51,1.06-1a2.24,2.24,0,0,0-2.53-2.28,2.58,2.58,0,0,0-2.82,2.34l-1.18-.25a3.71,3.71,0,0,1,4-3.18c2.61,0,3.81,1.58,3.81,3.49V40a7.91,7.91,0,0,0,.15,1.72h-1.25a11.46,11.46,0,0,1-.12-1.72,3.83,3.83,0,0,1-3.5,2,3,3,0,0,1-3.28-2.85m6.74-1.51V36.49a1.78,1.78,0,0,1-.74.25l-2.8.43c-1.18.16-1.92.82-1.92,1.91a1.94,1.94,0,0,0,2.15,1.83,3.12,3.12,0,0,0,3.31-3.28"/></g></g></svg>