<svg xmlns="http://www.w3.org/2000/svg" width="173.061" height="162.813" viewBox="0 0 173.061 162.813">

  <g id="logo-favicon" transform="translate(-8.2 -2.39)">
    <path id="scharff-point" style="fill:#FFFFFF;"  d="M215.92,161.48c-6.817,0-12.59,8.9-12.59,16.1,0,3.852,4.384,7.605,9.805,7.605,8,0,12.523-9.805,12.523-14.948C225.658,166.135,222.182,161.48,215.92,161.48Z" transform="translate(-48.631 -39.649)"/>
    <path id="scharff-s" style="fill:#FFFFFF;"  d="M181.261,18.171c0,2.718-2.117,4.685-5.706,4.685-7.823,0-10.473-6.186-28.755-6.186C96.822,16.047,29.89,51.055,29.89,72.19c0,14.257,45.985,11.284,77.022,19.723,0,0,7.973-4.324,18.341-9.212h.008a39.938,39.938,0,0,1,8.972-3.424.626.626,0,0,1,.075-.015c4.167-1.006,10.8-1.945,13.379,1.772.053.075.105.158.158.233a.9.9,0,0,1,.068.113,5.934,5.934,0,0,1,.758,2.553,2.721,2.721,0,0,1-2.372,3.206c-.458.113-.916.248-1.381.368-3.236.976-7.951,3.063-7.951,3.063h0c-9.407,4.362-14.865,7.32-14.865,7.32l.338.188a.007.007,0,0,0-.007.008c7.463,4.415,12.215,10.548,12.215,19.378,0,26.69-59.521,47.742-86.707,47.742-11.5,0-22.118-6.306-22.456-13.784v-.09c0-.09-.015-.18-.015-.27,0-3.806,4.782-9.467,12.846-16.164,11.172-9.5,28.7-21.029,48.77-32.231,0,0,.015-.03.038-.068C54.485,99.5,8.2,100.336,8.2,74.434,8.2,37.451,95.8,2.39,143.625,2.39,170.991,2.39,181.261,12.128,181.261,18.171ZM44.778,149.392c29.573-.21,73.846-19.633,73.846-33.312,0-4.925-4.159-8-10.841-10.045C82.414,120.307,59.4,135.93,44.778,149.392Z" transform="translate(0 0)" fill-rule="evenodd"/>
  </g>
</svg>
